<?xml version="1.0" encoding="utf-8"?>
<!-- Generator: Adobe Illustrator 26.0.1, SVG Export Plug-In . SVG Version: 6.00 Build 0)  -->
<svg version="1.1" id="Layer_1" xmlns="http://www.w3.org/2000/svg" xmlns:xlink="http://www.w3.org/1999/xlink" x="0px" y="0px"
	 viewBox="0 0 512 512" style="enable-background:new 0 0 512 512;" xml:space="preserve">
<style type="text/css">
	.st0{fill:#FFFFFF;}
	.st1{fill:url(#SVGID_1_);}
	.st2{fill:url(#SVGID_00000144318130971598491400000004713986447835537841_);}
	.st3{fill:url(#SVGID_00000181771451862921856650000006173460795809679279_);}
	.st4{fill:url(#SVGID_00000070106143588794621930000011447458356412127404_);}
	.st5{fill:url(#SVGID_00000133512775195567764730000010826995927417861558_);}
	.st6{fill:#50B74A;}
</style>
<g>
	<rect class="st0" width="512" height="512"/>
	<g id="Layer_1-2-2">
		
			<linearGradient id="SVGID_1_" gradientUnits="userSpaceOnUse" x1="102.6159" y1="279.6273" x2="315.0124" y2="279.6273" gradientTransform="matrix(1 0 0 1 2.95 2.21)">
			<stop  offset="0" style="stop-color:#6DB6E4"/>
			<stop  offset="6.000000e-02" style="stop-color:#63B0E1"/>
			<stop  offset="0.15" style="stop-color:#48A2DA"/>
			<stop  offset="0.27" style="stop-color:#248DCA"/>
			<stop  offset="0.35" style="stop-color:#097DC2"/>
			<stop  offset="1" style="stop-color:#2A2B6A"/>
		</linearGradient>
		<path class="st1" d="M112.2,240.7c-8.4,8.4-8.3,20.3,0.4,28.8c43.8,43.6,87.8,87,131.8,130.2c7.5,7.4,18.1,8.5,25.6,1.8
			c16.1-14.6,30.1-31.5,48.4-49c-34.5-33.7-66.1-64.5-100.1-97.8l7.7-8.1l44.3,44.1c15.9,16.3,32.5,15.8,46.2-3.4l-93.7-93.1
			l-59.9,62.1L264.3,356l-4.5,4.4L151.3,253.8l66.4-69l-27.7-27.1"/>
		
			<linearGradient id="SVGID_00000098942778819744175060000008909824109991067317_" gradientUnits="userSpaceOnUse" x1="269.4673" y1="269.5205" x2="369.9698" y2="269.5205" gradientTransform="matrix(1 0 0 1 2.95 2.21)">
			<stop  offset="0" style="stop-color:#6DB6E4"/>
			<stop  offset="6.000000e-02" style="stop-color:#63B0E1"/>
			<stop  offset="0.15" style="stop-color:#48A2DA"/>
			<stop  offset="0.27" style="stop-color:#248DCA"/>
			<stop  offset="0.35" style="stop-color:#097DC2"/>
			<stop  offset="1" style="stop-color:#2A2B6A"/>
		</linearGradient>
		<path style="fill:url(#SVGID_00000098942778819744175060000008909824109991067317_);" d="M328.6,287.7L297.2,322l25.8,25.5
			c15.5-15.6,44.6-45.2,44.6-45.2c8.5-9.4,7.5-23.5-1.6-32.8L290.7,196c-19.8,13.9-24.2,29.2-7.7,45.2"/>
		
			<linearGradient id="SVGID_00000009550617370345433340000001172084933012081332_" gradientUnits="userSpaceOnUse" x1="193.2656" y1="166.2422" x2="312.2279" y2="166.2422" gradientTransform="matrix(1 0 0 1 2.95 2.21)">
			<stop  offset="0" style="stop-color:#6DB6E4"/>
			<stop  offset="5.000000e-02" style="stop-color:#63B0E1"/>
			<stop  offset="0.14" style="stop-color:#48A2DA"/>
			<stop  offset="0.26" style="stop-color:#248DCA"/>
			<stop  offset="0.33" style="stop-color:#097DC2"/>
			<stop  offset="1" style="stop-color:#2A2B6A"/>
		</linearGradient>
		<path style="fill:url(#SVGID_00000009550617370345433340000001172084933012081332_);" d="M196.7,150.3l62.1,62l56.8-59.6
			l-28.4-28.2l-31.7,33.2c-10.6-9.9-23.4-22.1-34.5-32.5L196.7,150.3z"/>
		
			<linearGradient id="SVGID_00000113341522894316213440000010501443414414394277_" gradientUnits="userSpaceOnUse" x1="323.3336" y1="231.0264" x2="402.5725" y2="231.0264" gradientTransform="matrix(1 0 0 1 2.95 2.21)">
			<stop  offset="0" style="stop-color:#6DB6E4"/>
			<stop  offset="6.000000e-02" style="stop-color:#63B0E1"/>
			<stop  offset="0.15" style="stop-color:#48A2DA"/>
			<stop  offset="0.27" style="stop-color:#248DCA"/>
			<stop  offset="0.34" style="stop-color:#097DC2"/>
			<stop  offset="1" style="stop-color:#2A2B6A"/>
		</linearGradient>
		<path style="fill:url(#SVGID_00000113341522894316213440000010501443414414394277_);" d="M326.8,217.5l59.4,58.9l16.1-17.3
			c4.7-5.1,4.9-13.5,0.4-18.8c-0.1-0.2-0.3-0.3-0.4-0.5l-49.7-49.7L326.8,217.5z"/>
		
			<linearGradient id="SVGID_00000078742167479325063080000016750102107223445695_" gradientUnits="userSpaceOnUse" x1="290.9713" y1="183.6666" x2="343.2284" y2="183.6666" gradientTransform="matrix(1 0 0 1 2.95 2.21)">
			<stop  offset="0" style="stop-color:#6DB6E4"/>
			<stop  offset="4.000000e-02" style="stop-color:#63B0E1"/>
			<stop  offset="0.11" style="stop-color:#48A2DA"/>
			<stop  offset="0.2" style="stop-color:#248DCA"/>
			<stop  offset="0.26" style="stop-color:#097DC2"/>
			<stop  offset="1" style="stop-color:#2A2B6A"/>
		</linearGradient>
		<path style="fill:url(#SVGID_00000078742167479325063080000016750102107223445695_);" d="M322.3,159.5l-27.9,28.8l13.7,13.7
			c5.8-0.8,9.9-12.2,16.6-5.6l-10.8,11.2l5.2,4.6l27.7-28.9l-14.4-14.7c-9.8,8.8-12.5,11.6-18.3,10.7l13.9-14.7L322.3,159.5z"/>
		<path class="st6" d="M227.9,120.3l26.5,25.8l26.3-26.8C265.4,100.8,244.7,102,227.9,120.3z"/>
	</g>
</g>
</svg>
